<svg id="visual" viewBox="0 0 450 900" width="450" height="900" xmlns="http://www.w3.org/2000/svg" xmlns:xlink="http://www.w3.org/1999/xlink" version="1.1"><rect x="0" y="0" width="450" height="900" fill="#fff"></rect><defs><linearGradient id="grad1_0" x1="0%" y1="0%" x2="100%" y2="100%"><stop offset="30%" stop-color="#ffffff" stop-opacity="1"></stop><stop offset="70%" stop-color="#ffffff" stop-opacity="1"></stop></linearGradient></defs><defs><linearGradient id="grad2_0" x1="0%" y1="0%" x2="100%" y2="100%"><stop offset="30%" stop-color="#ffffff" stop-opacity="1"></stop><stop offset="70%" stop-color="#ffffff" stop-opacity="1"></stop></linearGradient></defs><g transform="translate(450, 0)"><path d="M0 292.5C-31.9 275 -63.7 257.4 -102.2 246.7C-140.6 235.9 -185.7 231.9 -206.8 206.8C-228 181.7 -225.3 135.6 -235.6 97.6C-245.9 59.6 -269.2 29.8 -292.5 0L0 0Z" fill="#002443"></path></g><g transform="translate(0, 900)"><path d="M0 -292.5C38.1 -289 76.1 -285.6 111.9 -270.2C147.7 -254.9 181.3 -227.7 194.5 -194.5C207.6 -161.2 200.5 -121.8 213.4 -88.4C226.4 -55 259.4 -27.5 292.5 0L0 0Z" fill="#002443"></path></g></svg>