<svg id="visual" viewBox="0 0 450 900" width="450" height="900" xmlns="http://www.w3.org/2000/svg" xmlns:xlink="http://www.w3.org/1999/xlink" version="1.1"><path d="M0 181L10.7 178C21.3 175 42.7 169 64.2 161.5C85.7 154 107.3 145 128.8 145C150.3 145 171.7 154 193 169C214.3 184 235.7 205 257 209.5C278.3 214 299.7 202 321.2 185.5C342.7 169 364.3 148 385.8 154C407.3 160 428.7 193 439.3 209.5L450 226L450 0L439.3 0C428.7 0 407.3 0 385.8 0C364.3 0 342.7 0 321.2 0C299.7 0 278.3 0 257 0C235.7 0 214.3 0 193 0C171.7 0 150.3 0 128.8 0C107.3 0 85.7 0 64.2 0C42.7 0 21.3 0 10.7 0L0 0Z" fill="#031d32"></path><path d="M0 496L10.7 484C21.3 472 42.7 448 64.2 446.5C85.7 445 107.3 466 128.8 478C150.3 490 171.7 493 193 499C214.3 505 235.7 514 257 524.5C278.3 535 299.7 547 321.2 544C342.7 541 364.3 523 385.8 515.5C407.3 508 428.7 511 439.3 512.5L450 514L450 224L439.3 207.5C428.7 191 407.3 158 385.8 152C364.3 146 342.7 167 321.2 183.5C299.7 200 278.3 212 257 207.5C235.7 203 214.3 182 193 167C171.7 152 150.3 143 128.8 143C107.3 143 85.7 152 64.2 159.5C42.7 167 21.3 173 10.7 176L0 179Z" fill="#01223d"></path><path d="M0 667L10.7 646C21.3 625 42.7 583 64.2 580C85.7 577 107.3 613 128.8 631C150.3 649 171.7 649 193 655C214.3 661 235.7 673 257 674.5C278.3 676 299.7 667 321.2 659.5C342.7 652 364.3 646 385.8 649C407.3 652 428.7 664 439.3 670L450 676L450 512L439.3 510.5C428.7 509 407.3 506 385.8 513.5C364.3 521 342.7 539 321.2 542C299.7 545 278.3 533 257 522.5C235.7 512 214.3 503 193 497C171.7 491 150.3 488 128.8 476C107.3 464 85.7 443 64.2 444.5C42.7 446 21.3 470 10.7 482L0 494Z" fill="#023056"></path><path d="M0 901L10.7 901C21.3 901 42.7 901 64.2 901C85.7 901 107.3 901 128.8 901C150.3 901 171.7 901 193 901C214.3 901 235.7 901 257 901C278.3 901 299.7 901 321.2 901C342.7 901 364.3 901 385.8 901C407.3 901 428.7 901 439.3 901L450 901L450 674L439.3 668C428.7 662 407.3 650 385.8 647C364.3 644 342.7 650 321.2 657.5C299.7 665 278.3 674 257 672.5C235.7 671 214.3 659 193 653C171.7 647 150.3 647 128.8 629C107.3 611 85.7 575 64.2 578C42.7 581 21.3 623 10.7 644L0 665Z" fill="#09497d"></path></svg>